<svg id="_ÎÓÈ_1" data-name="—ÎÓÈ_1" xmlns="http://www.w3.org/2000/svg" viewBox="0 0 344.17 266.62">
  <title>959 [Convertido]</title>
  <g>
    <g>
      <path d="M182.81,246.1l-116-67c-3.28-1.89-2.87-5.2.92-7.39l79-45.57c3.79-2.19,9.52-2.42,12.8-.53l116,67c3.28,1.89,2.87,5.2-.92,7.39l-79,45.57C191.82,247.75,186.09,248,182.81,246.1Z" style="fill: #efefef"/>
      <path d="M302.65,74l-116-67a4.68,4.68,0,0,0-3.93-.48h0l-.21.08-.05,0-4.19,1.6,3.76,1.84c0,.07,0,.13-.05.2l-18.89,86c-.95,4.3.95,9.33,4.23,11.22l113.18,65.34-.4,4.8,4.58-1.78A6.44,6.44,0,0,0,288,171.2l18.89-86C307.82,80.91,305.93,75.89,302.65,74Z" style="fill: #173d7a"/>
      <path d="M302.65,74l-116-67a4.68,4.68,0,0,0-3.93-.48h0l-.21.08-.05,0-4.19,1.6,3.76,1.84c0,.07,0,.13-.05.2L169.57,67l56.74,44.21,80-32.55A9,9,0,0,0,302.65,74Z" style="fill: #396caa"/>
      <path d="M298.28,87.21l8.83-3.76a11.06,11.06,0,0,0-3.58-8.84l-14,5.88Z" style="fill: #274f89"/>
      <path d="M276.1,177.18l-116-67c-3.28-1.89-5.17-6.92-4.23-11.22l18.89-86c.95-4.3,4.37-6.26,7.65-4.36l116,67c3.28,1.89,5.17,6.92,4.23,11.22l-18.89,86C282.81,177.13,279.38,179.08,276.1,177.18Z" style="fill: #d4ecff"/>
      <path d="M273.59,170.79,164.52,107.85c-3-1.73-4.73-6.33-3.87-10.27L177.94,18.9c.87-3.94,4-5.72,7-4L294,77.85c3,1.73,4.73,6.33,3.87,10.27L280.59,166.8C279.72,170.73,276.59,172.52,273.59,170.79Z" style="fill: #fff"/>
      <path d="M273.59,170.79,164.52,107.85c-3-1.73-4.73-6.33-3.87-10.27L177.94,18.9c.87-3.94,4-5.72,7-4L294,77.85c3,1.73,4.73,6.33,3.87,10.27L280.59,166.8C279.72,170.73,276.59,172.52,273.59,170.79Z" style="fill: #173d7a"/>
      <path d="M277.7,180.1,261.85,178,159.52,118.93c-3.28-1.89-9-1.66-12.8.53L74.22,161.31,64.63,160v5.44h0a3.73,3.73,0,0,0,2.2,3.36l116,67c3.28,1.89,9,1.66,12.8-.53l79-45.57c2.13-1.23,3.19-2.82,3.13-4.3h0Z" style="fill: #173d7a"/>
      <path d="M200.82,142.77l-7.27-4.2H113.62l-39.4,22.73L64.63,160v5.44h0a3.73,3.73,0,0,0,2.2,3.36l116,67a12,12,0,0,0,6.61,1.24Z" style="fill: #396caa"/>
      <path d="M68.88,160.6,64.63,160v5.44h0a3.73,3.73,0,0,0,2.2,3.36l2,1.18Z" style="fill: #5793ce"/>
      <path d="M184,236.34a14.85,14.85,0,0,0,10.87-.68V223.53H184Z" style="fill: #274f89"/>
      <path d="M182.81,230.36l-116-67c-3.28-1.89-2.87-5.2.92-7.39l79-45.57c3.79-2.19,9.52-2.42,12.8-.53l116,67c3.28,1.89,2.87,5.2-.92,7.39l-79,45.57C191.82,232,186.09,232.25,182.81,230.36Z" style="fill: #d4ecff"/>
      <path d="M274.57,182.27l-79,45.58c-3.79,2.19-9.52,2.42-12.8.53l-116-67a4.32,4.32,0,0,1-2-2.23c-.51,1.55.14,3.12,2,4.22l116,67c3.28,1.89,9,1.66,12.8-.53l79-45.57c2.55-1.47,3.56-3.45,3-5.16A6.17,6.17,0,0,1,274.57,182.27Z" style="fill: #fff"/>
      <g>
        <path d="M116.16,141.24l-5.25-3c-.42-.24-.37-.67.12-.95l6.19-3.58a1.83,1.83,0,0,1,1.64-.07l5.25,3c.42.24.37.67-.12.95l-6.19,3.58A1.83,1.83,0,0,1,116.16,141.24Z" style="fill: #b9dff9"/>
        <path d="M124.27,145.92l-5.25-3c-.42-.24-.37-.67.12-.95l6.19-3.58a1.83,1.83,0,0,1,1.64-.07l5.25,3c.42.24.37.67-.12.95l-6.19,3.58A1.83,1.83,0,0,1,124.27,145.92Z" style="fill: #b9dff9"/>
        <path d="M132.37,150.6l-5.25-3c-.42-.24-.37-.67.12-.95l6.19-3.58a1.83,1.83,0,0,1,1.64-.07l5.25,3c.42.24.37.67-.12.95L134,150.53A1.83,1.83,0,0,1,132.37,150.6Z" style="fill: #b9dff9"/>
        <path d="M143.57,146.74l-5.25-3c-.42-.24-.37-.67.12-.95l5.2-3a1.83,1.83,0,0,1,1.64-.07l5.25,3c.42.24.37.67-.12.95l-5.2,3A1.83,1.83,0,0,1,143.57,146.74Z" style="fill: #b9dff9"/>
        <path d="M151.68,151.41l-5.25-3c-.42-.24-.37-.67.12-.95l5.2-3a1.83,1.83,0,0,1,1.64-.07l5.25,3c.42.24.37.67-.12.95l-5.2,3A1.83,1.83,0,0,1,151.68,151.41Z" style="fill: #b9dff9"/>
        <path d="M159.78,156.09l-5.25-3c-.42-.24-.37-.67.12-.95l5.2-3a1.83,1.83,0,0,1,1.64-.07l5.25,3c.42.24.37.67-.12.95l-5.2,3A1.83,1.83,0,0,1,159.78,156.09Z" style="fill: #b9dff9"/>
        <path d="M167.88,160.77l-5.25-3c-.42-.24-.37-.67.12-.95l5.2-3a1.83,1.83,0,0,1,1.64-.07l5.25,3c.42.24.37.67-.12.95l-5.2,3A1.83,1.83,0,0,1,167.88,160.77Z" style="fill: #b9dff9"/>
        <path d="M176,165.45l-5.25-3c-.42-.24-.37-.67.12-.95l5.2-3a1.83,1.83,0,0,1,1.64-.07l5.25,3c.42.24.37.67-.12.95l-5.2,3A1.83,1.83,0,0,1,176,165.45Z" style="fill: #b9dff9"/>
        <path d="M184.09,170.13l-5.25-3c-.42-.24-.37-.67.12-.95l5.2-3a1.83,1.83,0,0,1,1.64-.07l5.25,3c.42.24.37.67-.12.95l-5.2,3A1.83,1.83,0,0,1,184.09,170.13Z" style="fill: #b9dff9"/>
        <path d="M192.19,174.8l-5.25-3c-.42-.24-.37-.67.12-.95l5.2-3a1.83,1.83,0,0,1,1.64-.07l5.25,3c.42.24.37.67-.12.95l-5.2,3A1.83,1.83,0,0,1,192.19,174.8Z" style="fill: #b9dff9"/>
        <path d="M200.3,179.48l-5.25-3c-.42-.24-.37-.67.12-.95l5.2-3a1.83,1.83,0,0,1,1.64-.07l5.25,3c.42.24.37.67-.12.95l-5.2,3A1.83,1.83,0,0,1,200.3,179.48Z" style="fill: #b9dff9"/>
        <path d="M208.4,184.16l-5.25-3c-.42-.24-.37-.67.12-.95l5.2-3a1.83,1.83,0,0,1,1.64-.07l5.25,3c.42.24.37.67-.12.95l-5.2,3A1.83,1.83,0,0,1,208.4,184.16Z" style="fill: #b9dff9"/>
        <path d="M216.5,188.84l-5.25-3c-.42-.24-.37-.67.12-.95l5.2-3a1.83,1.83,0,0,1,1.64-.07l5.25,3c.42.24.37.67-.12.95l-5.2,3A1.83,1.83,0,0,1,216.5,188.84Z" style="fill: #b9dff9"/>
        <path d="M155.51,144.52l-5.25-3c-.42-.24-.37-.67.12-.95l5.2-3a1.83,1.83,0,0,1,1.64-.07l5.25,3c.42.24.37.67-.12.95l-5.2,3A1.83,1.83,0,0,1,155.51,144.52Z" style="fill: #b9dff9"/>
        <path d="M147.29,139.77l-5.25-3c-.42-.24-.37-.67.12-.95l5.2-3a1.83,1.83,0,0,1,1.64-.07l5.25,3c.42.24.37.67-.12.95l-5.2,3A1.83,1.83,0,0,1,147.29,139.77Z" style="fill: #b9dff9"/>
        <path d="M139.05,135l-11.3-6.52c-.42-.24-.37-.67.12-.95l5.2-3a1.83,1.83,0,0,1,1.64-.07L146,131c.42.24.37.67-.12.95l-5.2,3A1.83,1.83,0,0,1,139.05,135Z" style="fill: #b9dff9"/>
        <path d="M144.81,129.23l-9.17-5.29c-.42-.24-.37-.67.12-.95l5.2-3a1.83,1.83,0,0,1,1.64-.07l9.17,5.29c.42.24.37.67-.12.95l-5.2,3A1.83,1.83,0,0,1,144.81,129.23Z" style="fill: #b9dff9"/>
        <path d="M163.62,149.2l-5.25-3c-.42-.24-.37-.67.12-.95l5.2-3a1.83,1.83,0,0,1,1.64-.07l5.25,3c.42.24.37.67-.12.95l-5.2,3A1.83,1.83,0,0,1,163.62,149.2Z" style="fill: #b9dff9"/>
        <path d="M171.72,153.88l-5.25-3c-.42-.24-.37-.67.12-.95l5.2-3a1.83,1.83,0,0,1,1.64-.07l5.25,3c.42.24.37.67-.12.95l-5.2,3A1.83,1.83,0,0,1,171.72,153.88Z" style="fill: #b9dff9"/>
        <path d="M179.82,158.55l-5.25-3c-.42-.24-.37-.67.12-.95l5.2-3a1.83,1.83,0,0,1,1.64-.07l5.25,3c.42.24.37.67-.12.95l-5.2,3A1.83,1.83,0,0,1,179.82,158.55Z" style="fill: #b9dff9"/>
        <path d="M187.93,163.23l-5.25-3c-.42-.24-.37-.67.12-.95l5.2-3a1.83,1.83,0,0,1,1.64-.07l5.25,3c.42.24.37.67-.12.95l-5.2,3A1.83,1.83,0,0,1,187.93,163.23Z" style="fill: #b9dff9"/>
        <path d="M196,167.91l-5.25-3c-.42-.24-.37-.67.12-.95l5.2-3a1.83,1.83,0,0,1,1.64-.07l5.25,3c.42.24.37.67-.12.95l-5.2,3A1.83,1.83,0,0,1,196,167.91Z" style="fill: #b9dff9"/>
        <path d="M204.13,172.59l-5.25-3c-.42-.24-.37-.67.12-.95l5.2-3a1.83,1.83,0,0,1,1.64-.07l5.25,3c.42.24.37.67-.12.95l-5.2,3A1.83,1.83,0,0,1,204.13,172.59Z" style="fill: #b9dff9"/>
        <path d="M212.23,177.27l-5.25-3c-.42-.24-.37-.67.12-.95l5.2-3a1.83,1.83,0,0,1,1.64-.07l5.25,3c.42.24.37.67-.12.95l-5.2,3A1.83,1.83,0,0,1,212.23,177.27Z" style="fill: #b9dff9"/>
        <path d="M220.34,181.95l-5.25-3c-.42-.24-.37-.67.12-.95l5.2-3a1.83,1.83,0,0,1,1.64-.07l5.25,3c.42.24.37.67-.12.95l-5.2,3A1.83,1.83,0,0,1,220.34,181.95Z" style="fill: #b9dff9"/>
        <path d="M228.44,186.62l-5.25-3c-.42-.24-.37-.67.12-.95l5.2-3a1.83,1.83,0,0,1,1.64-.07l5.25,3c.42.24.37.67-.12.95l-5.2,3A1.83,1.83,0,0,1,228.44,186.62Z" style="fill: #b9dff9"/>
        <path d="M242.85,194.94l-11.45-6.61c-.42-.24-.37-.67.12-.95l5.2-3a1.83,1.83,0,0,1,1.64-.07l11.45,6.61c.42.24.37.67-.12.95l-5.2,3A1.83,1.83,0,0,1,242.85,194.94Z" style="fill: #b9dff9"/>
        <path d="M258.62,185.83,249,180.25c-.42-.24-.37-.67.12-.95l5.2-3a1.83,1.83,0,0,1,1.64-.07l9.66,5.58c.42.24.37.67-.12.95l-5.2,3A1.83,1.83,0,0,1,258.62,185.83Z" style="fill: #b9dff9"/>
        <path d="M177.81,148.28l-5.25-3c-.42-.24-.37-.67.12-.95l5.2-3a1.83,1.83,0,0,1,1.64-.07l5.25,3c.42.24.37.67-.12.95l-5.2,3A1.83,1.83,0,0,1,177.81,148.28Z" style="fill: #b9dff9"/>
        <path d="M169.5,143.49l-5.25-3c-.42-.24-.37-.67.12-.95l5.2-3a1.83,1.83,0,0,1,1.64-.07l5.25,3c.42.24.37.67-.12.95l-5.2,3A1.83,1.83,0,0,1,169.5,143.49Z" style="fill: #b9dff9"/>
        <path d="M161.2,138.69l-5.25-3c-.42-.24-.37-.67.12-.95l5.2-3a1.83,1.83,0,0,1,1.64-.07l5.25,3c.42.24.37.67-.12.95l-5.2,3A1.83,1.83,0,0,1,161.2,138.69Z" style="fill: #b9dff9"/>
        <path d="M152.89,133.9l-5.25-3c-.42-.24-.37-.67.12-.95l5.2-3a1.83,1.83,0,0,1,1.64-.07l5.25,3c.42.24.37.67-.12.95l-5.2,3A1.83,1.83,0,0,1,152.89,133.9Z" style="fill: #b9dff9"/>
        <path d="M185.91,153l-5.25-3c-.42-.24-.37-.67.12-.95l5.2-3a1.83,1.83,0,0,1,1.64-.07l5.25,3c.42.24.37.67-.12.95l-5.2,3A1.83,1.83,0,0,1,185.91,153Z" style="fill: #b9dff9"/>
        <path d="M194,157.64l-5.25-3c-.42-.24-.37-.67.12-.95l5.2-3a1.83,1.83,0,0,1,1.64-.07l5.25,3c.42.24.37.67-.12.95l-5.2,3A1.83,1.83,0,0,1,194,157.64Z" style="fill: #b9dff9"/>
        <path d="M202.12,162.32l-5.25-3c-.42-.24-.37-.67.12-.95l5.2-3a1.83,1.83,0,0,1,1.64-.07l5.25,3c.42.24.37.67-.12.95l-5.2,3A1.83,1.83,0,0,1,202.12,162.32Z" style="fill: #b9dff9"/>
        <path d="M210.22,167,205,164c-.42-.24-.37-.67.12-.95l5.2-3a1.83,1.83,0,0,1,1.64-.07l5.25,3c.42.24.37.67-.12.95l-5.2,3A1.83,1.83,0,0,1,210.22,167Z" style="fill: #b9dff9"/>
        <path d="M218.32,171.67l-5.25-3c-.42-.24-.37-.67.12-.95l5.2-3a1.83,1.83,0,0,1,1.64-.07l5.25,3c.42.24.37.67-.12.95l-5.2,3A1.83,1.83,0,0,1,218.32,171.67Z" style="fill: #b9dff9"/>
        <path d="M226.42,176.35l-5.25-3c-.42-.24-.37-.67.12-.95l5.2-3a1.83,1.83,0,0,1,1.64-.07l5.25,3c.42.24.37.67-.12.95l-5.2,3A1.83,1.83,0,0,1,226.42,176.35Z" style="fill: #b9dff9"/>
        <path d="M234.53,181l-5.25-3c-.42-.24-.37-.67.12-.95l5.2-3a1.83,1.83,0,0,1,1.64-.07l5.25,3c.42.24.37.67-.12.95l-5.2,3A1.83,1.83,0,0,1,234.53,181Z" style="fill: #b9dff9"/>
        <path d="M242.63,185.71l-5.25-3c-.42-.24-.37-.67.12-.95l5.2-3a1.83,1.83,0,0,1,1.64-.07l5.25,3c.42.24.37.67-.12.95l-5.2,3A1.83,1.83,0,0,1,242.63,185.71Z" style="fill: #b9dff9"/>
        <path d="M250.73,190.39l-5.25-3c-.42-.24-.37-.67.12-.95l5.2-3a1.83,1.83,0,0,1,1.64-.07l5.25,3c.42.24.37.67-.12.95l-5.2,3A1.83,1.83,0,0,1,250.73,190.39Z" style="fill: #b9dff9"/>
        <path d="M173.54,136.71l-5.25-3c-.42-.24-.37-.67.12-.95l5.2-3a1.83,1.83,0,0,1,1.64-.07l5.25,3c.42.24.37.67-.12.95l-5.2,3A1.83,1.83,0,0,1,173.54,136.71Z" style="fill: #b9dff9"/>
        <path d="M165.48,132.06l-5.25-3c-.42-.24-.37-.67.12-.95l5.2-3a1.83,1.83,0,0,1,1.64-.07l5.25,3c.42.24.37.67-.12.95l-5.2,3A1.83,1.83,0,0,1,165.48,132.06Z" style="fill: #b9dff9"/>
        <path d="M157.42,127.4l-5.25-3c-.42-.24-.37-.67.12-.95l5.2-3a1.83,1.83,0,0,1,1.64-.07l5.25,3c.42.24.37.67-.12.95l-5.2,3A1.83,1.83,0,0,1,157.42,127.4Z" style="fill: #b9dff9"/>
        <path d="M149.35,122.75l-5.25-3c-.42-.24-.37-.67.12-.95l5.2-3a1.83,1.83,0,0,1,1.64-.07l5.25,3c.42.24.37.67-.12.95l-5.2,3A1.83,1.83,0,0,1,149.35,122.75Z" style="fill: #b9dff9"/>
        <path d="M157.64,118l-5.25-3c-.42-.24-.37-.67.12-.95l1.72-1a1.83,1.83,0,0,1,1.64-.07l5.25,3c.42.24.37.67-.12.95l-1.72,1A1.83,1.83,0,0,1,157.64,118Z" style="fill: #b9dff9"/>
        <path d="M168.17,124l-5.25-3c-.42-.24-.37-.67.12-.95l1.72-1a1.83,1.83,0,0,1,1.64-.07l5.25,3c.42.24.37.67-.12.95l-1.72,1A1.83,1.83,0,0,1,168.17,124Z" style="fill: #b9dff9"/>
        <path d="M176.19,128.67l-5.25-3c-.42-.24-.37-.67.12-.95l1.72-1a1.83,1.83,0,0,1,1.64-.07l5.25,3c.42.24.37.67-.12.95l-1.72,1A1.83,1.83,0,0,1,176.19,128.67Z" style="fill: #b9dff9"/>
        <path d="M184.22,133.31l-5.25-3c-.42-.24-.37-.67.12-.95l1.72-1a1.83,1.83,0,0,1,1.64-.07l5.25,3c.42.24.37.67-.12.95l-1.72,1A1.83,1.83,0,0,1,184.22,133.31Z" style="fill: #b9dff9"/>
        <path d="M192.25,137.94l-5.25-3c-.42-.24-.37-.67.12-.95l1.72-1a1.83,1.83,0,0,1,1.64-.07l5.25,3c.42.24.37.67-.12.95l-1.72,1A1.83,1.83,0,0,1,192.25,137.94Z" style="fill: #b9dff9"/>
        <path d="M237.08,163.82l-5.25-3c-.42-.24-.37-.67.12-.95l1.72-1a1.83,1.83,0,0,1,1.64-.07l5.25,3c.42.24.37.67-.12.95l-1.72,1A1.83,1.83,0,0,1,237.08,163.82Z" style="fill: #b9dff9"/>
        <path d="M245.11,168.46l-5.25-3c-.42-.24-.37-.67.12-.95l1.72-1a1.83,1.83,0,0,1,1.64-.07l5.25,3c.42.24.37.67-.12.95l-1.72,1A1.83,1.83,0,0,1,245.11,168.46Z" style="fill: #b9dff9"/>
        <path d="M253.14,173.09l-5.25-3c-.42-.24-.37-.67.12-.95l1.72-1a1.83,1.83,0,0,1,1.64-.07l5.25,3c.42.24.37.67-.12.95l-1.72,1A1.83,1.83,0,0,1,253.14,173.09Z" style="fill: #b9dff9"/>
        <path d="M261.16,177.73l-5.25-3c-.42-.24-.37-.67.12-.95l1.72-1a1.83,1.83,0,0,1,1.64-.07l5.25,3c.42.24.37.67-.12.95l-1.72,1A1.83,1.83,0,0,1,261.16,177.73Z" style="fill: #b9dff9"/>
        <path d="M181.64,141.39l-5.25-3c-.42-.24-.37-.67.12-.95l5.2-3a1.83,1.83,0,0,1,1.64-.07l5.25,3c.42.24.37.67-.12.95l-5.2,3A1.83,1.83,0,0,1,181.64,141.39Z" style="fill: #b9dff9"/>
        <path d="M189.75,146.07l-5.25-3c-.42-.24-.37-.67.12-.95l5.2-3a1.83,1.83,0,0,1,1.64-.07l5.25,3c.42.24.37.67-.12.95l-5.2,3A1.83,1.83,0,0,1,189.75,146.07Z" style="fill: #b9dff9"/>
        <path d="M197.85,150.75l-5.25-3c-.42-.24-.37-.67.12-.95l5.2-3a1.83,1.83,0,0,1,1.64-.07l5.25,3c.42.24.37.67-.12.95l-5.2,3A1.83,1.83,0,0,1,197.85,150.75Z" style="fill: #b9dff9"/>
        <path d="M206,155.42l-5.25-3c-.42-.24-.37-.67.12-.95l5.2-3a1.83,1.83,0,0,1,1.64-.07l5.25,3c.42.24.37.67-.12.95l-5.2,3A1.83,1.83,0,0,1,206,155.42Z" style="fill: #b9dff9"/>
        <path d="M214.06,160.1l-5.25-3c-.42-.24-.37-.67.12-.95l5.2-3a1.83,1.83,0,0,1,1.64-.07l5.25,3c.42.24.37.67-.12.95l-5.2,3A1.83,1.83,0,0,1,214.06,160.1Z" style="fill: #b9dff9"/>
        <path d="M222.16,164.78l-5.25-3c-.42-.24-.37-.67.12-.95l5.2-3a1.83,1.83,0,0,1,1.64-.07l5.25,3c.42.24.37.67-.12.95l-5.2,3A1.83,1.83,0,0,1,222.16,164.78Z" style="fill: #b9dff9"/>
        <path d="M230.26,169.46l-5.25-3c-.42-.24-.37-.67.12-.95l5.2-3a1.83,1.83,0,0,1,1.64-.07l5.25,3c.42.24.37.67-.12.95l-5.2,3A1.83,1.83,0,0,1,230.26,169.46Z" style="fill: #b9dff9"/>
        <path d="M238.36,174.14l-5.25-3c-.42-.24-.37-.67.12-.95l5.2-3a1.83,1.83,0,0,1,1.64-.07l5.25,3c.42.24.37.67-.12.95l-5.2,3A1.83,1.83,0,0,1,238.36,174.14Z" style="fill: #b9dff9"/>
        <path d="M246.47,178.82l-5.25-3c-.42-.24-.37-.67.12-.95l5.2-3a1.83,1.83,0,0,1,1.64-.07l5.25,3c.42.24.37.67-.12.95l-5.2,3A1.83,1.83,0,0,1,246.47,178.82Z" style="fill: #b9dff9"/>
        <path d="M135.32,142,119.86,133c-.42-.24-.37-.67.12-.95l5.2-3a1.83,1.83,0,0,1,1.64-.07l15.45,8.92c.42.24.37.67-.12.95l-5.2,3A1.83,1.83,0,0,1,135.32,142Z" style="fill: #b9dff9"/>
        <path d="M234.86,199.44l-15.45-8.92c-.42-.24-.37-.67.12-.95l5.2-3a1.83,1.83,0,0,1,1.64-.07l15.45,8.92c.42.24.37.67-.12.95l-5.2,3A1.83,1.83,0,0,1,234.86,199.44Z" style="fill: #b9dff9"/>
        <path d="M202.46,191.07l-5.25-3c-.42-.24-.37-.67.12-.95l6.19-3.58a1.83,1.83,0,0,1,1.64-.07l5.25,3c.42.24.37.67-.12.95L204.1,191A1.83,1.83,0,0,1,202.46,191.07Z" style="fill: #b9dff9"/>
        <path d="M143.62,157.09l-8.39-4.84c-.42-.24-.37-.67.12-.95l6.19-3.58a1.83,1.83,0,0,1,1.64-.07l8.39,4.84c.42.24.37.67-.12.95L145.26,157A1.83,1.83,0,0,1,143.62,157.09Z" style="fill: #b9dff9"/>
        <path d="M194.65,186.56l-8.39-4.84c-.42-.24-.37-.67.12-.95l6.19-3.58a1.83,1.83,0,0,1,1.64-.07l8.39,4.84c.42.24.37.67-.12.95l-6.19,3.58A1.83,1.83,0,0,1,194.65,186.56Z" style="fill: #b9dff9"/>
        <path d="M155.31,163.84,146.91,159c-.42-.24-.37-.67.12-.95l6.19-3.58a1.83,1.83,0,0,1,1.64-.07l8.39,4.84c.42.24.37.67-.12.95l-6.19,3.58A1.83,1.83,0,0,1,155.31,163.84Z" style="fill: #b9dff9"/>
        <path d="M154.93,154.44l36.48,21.06a.5.5,0,0,1,0,.95l-6.32,3.65a1.81,1.81,0,0,1-1.64,0L147,159Z" style="fill: #b9dff9"/>
        <path d="M225.11,199.55l5.84,3.37c.35.2.3.55-.1.78l-2.53,1.46a1.5,1.5,0,0,1-1.35.06l-5.84-3.37c-.35-.2-.3-.55.1-.78l2.53-1.46A1.5,1.5,0,0,1,225.11,199.55Z" style="fill: #b9dff9"/>
        <path d="M216.94,194.83l5.84,3.37c.35.2.3.55-.1.78l-2.53,1.46a1.5,1.5,0,0,1-1.35.06L213,197.13c-.35-.2-.3-.55.1-.78l2.53-1.46A1.5,1.5,0,0,1,216.94,194.83Z" style="fill: #b9dff9"/>
        <path d="M208.83,190.15l5.84,3.37c.35.2.3.55-.1.78L212,195.77a1.5,1.5,0,0,1-1.35.06l-5.84-3.37c-.35-.2-.3-.55.1-.78l2.53-1.46A1.5,1.5,0,0,1,208.83,190.15Z" style="fill: #b9dff9"/>
        <path d="M221.41,192.25l5.84,3.37c.35.2.3.55-.1.78l-2.53,1.46a1.5,1.5,0,0,1-1.35.06l-5.84-3.37c-.35-.2-.3-.55.1-.78l2.53-1.46A1.5,1.5,0,0,1,221.41,192.25Z" style="fill: #b9dff9"/>
      </g>
      <g>
        <polygon points="266.96 83.5 214.26 53.07 214.94 49.65 267.64 80.08 266.96 83.5" style="fill: #5793ce"/>
        <polygon points="248.09 89.28 211.3 68.04 211.98 64.62 248.76 85.86 248.09 89.28" style="fill: #5793ce"/>
        <polygon points="244.61 78.93 212.78 60.56 213.46 57.13 245.28 75.51 244.61 78.93" style="fill: #fff"/>
        <polygon points="265.48 90.98 249.57 81.8 250.25 78.37 266.16 87.56 265.48 90.98" style="fill: #236d2e"/>
      </g>
    </g>
    <polygon points="266.47 117.18 257.16 161.32 223.73 142.03 231.03 127.68 266.47 117.18" style="fill: #0a2d60"/>
    <path d="M162.9,185h0a14,14,0,0,1,0-24.16l46.74-27,47.52,27.44L216.1,185A53.2,53.2,0,0,1,162.9,185Z" style="fill: #5793ce"/>
    <polygon points="205.77 48.53 189.33 39.04 190.03 35.5 206.47 44.99 205.77 48.53" style="fill: #d4ecff"/>
    <polygon points="204.31 56.04 187.87 46.54 188.57 43 205.01 52.5 204.31 56.04" style="fill: #fff"/>
    <g>
      <path d="M62.32,136.47h0C54.81,132.3,50.11,123.14,50.07,110,50,84.09,68.17,52.38,90.59,39.33l16.18-9.41h0l.78.44,74.24,41.75L163,84.33l-7.06,5.17-9.72,10.16-1.56,1.43L134.3,116.75l-3.79,9.81-2.81,7.8-2.31,16.37-.16,1.41.83,6.9,2.39,8.54,3.37,5.79,4.9,5.81Z" style="fill: #5793ce"/>
      <path d="M192.23,71.79v2.75L143,103.15a17.47,17.47,0,0,1,4-5.09Z" style="fill: #d4ecff"/>
      <polygon points="266.46 114.43 192.23 71.79 147.28 98.77 141.66 105.32 133.21 120.17 127.9 135.01 126.17 146.61 125.95 158.19 133.2 174.75 142.63 180.26 152.32 180.77 163.95 175.94 255.87 121.87 266.46 114.43" style="fill: #d4ecff"/>
      <path d="M62.33,136.48C56,133,51.73,126,50.47,116.13l75.72,43.4,2.25,8.07,3.37,5.79,4.9,5.81L62.32,136.47Z" style="fill: #396caa"/>
      <g>
        <path d="M50.75,118a47.07,47.07,0,0,1-.68-8c0-1.91.1-3.85.28-5.82l75.48,43.26-.46,3.25-.16,1.41.83,6.9.71,2.54Z" style="fill: #173d7a"/>
        <path d="M266.47,117.18v-2.75L165.12,173.33c-21.12,12.28-38.36,2.4-38.44-22s17-54.29,38.16-66.57l17-9.86V72.11l-17,9.86c-22.43,13-40.6,44.76-40.52,70.7s18.39,36.44,40.82,23.4Z" style="fill: #173d7a"/>
      </g>
    </g>
    <g>
      <polygon points="226.02 122.45 180.39 95.84 177.53 97.48 223.16 124.08 226.02 122.45" style="fill: #5793ce"/>
      <polygon points="224.75 107.27 192.9 88.69 190.04 90.33 221.89 108.9 224.75 107.27" style="fill: #5793ce"/>
      <polygon points="214.2 108.33 186.65 92.27 183.78 93.9 211.34 109.97 214.2 108.33" style="fill: #5793ce"/>
      <polygon points="232.28 118.87 218.5 110.84 215.64 112.48 229.41 120.51 232.28 118.87" style="fill: #5793ce"/>
    </g>
    <g>
      <path d="M222.13,261.59l98.45-56.88c2.39-1.38,2.09-3.79-.67-5.38h0c-2.76-1.59-6.93-1.76-9.31-.39l-98.45,56.88c-2.39,1.38-2.09,3.78.67,5.38h0C215.58,262.79,219.74,263,222.13,261.59Z" style="fill: #efefef"/>
      <g>
        <path d="M328.62,185.26h0a.38.38,0,0,0-.4-.18L323,186.16l2,3.52,3.57-4A.38.38,0,0,0,328.62,185.26Z" style="fill: #ff2c9c"/>
        <g>
          <path d="M326.53,187.83a2.61,2.61,0,0,0-1.18-2.05.86.86,0,0,0-.78-.1,33.41,33.41,0,0,0-17.24,4.43l-.38.22,6.39,11.12,1.93-1.25a33.4,33.4,0,0,0,10.13-10.3l.83-1.33A.86.86,0,0,0,326.53,187.83Z" style="fill: #5793ce"/>
          <path d="M314.67,198.51a10,10,0,0,0-4.52-7.86c-2.5-1.45-4.53-.28-4.54,2.61a10,10,0,0,0,4.52,7.86C312.63,202.57,314.66,201.4,314.67,198.51Z" style="fill: #5793ce"/>
          <polygon points="274.54 225.08 313.33 201.44 306.95 190.32 267 211.94 274.54 225.08" style="fill: #5793ce"/>
          <path d="M276.12,221.61a11.84,11.84,0,0,0-5.34-9.29c-3-1.71-5.36-.33-5.36,3.08a11.84,11.84,0,0,0,5.34,9.29C273.71,226.41,276.11,225,276.12,221.61Z" style="fill: #d4ecff"/>
        </g>
        <g>
          <path d="M273.91,222.88a11.84,11.84,0,0,0-5.34-9.29c-3-1.71-5.36-.33-5.36,3.08a11.84,11.84,0,0,0,5.34,9.29C271.5,227.68,273.9,226.3,273.91,222.88Z" style="fill: #d4ecff"/>
          <rect x="213.32" y="226.95" width="59.17" height="15.15" transform="translate(-84.55 152.19) rotate(-29.88)" style="fill: #d4ecff"/>
          <path d="M222.6,252.36a11.84,11.84,0,0,0-5.34-9.29c-3-1.71-5.36-.33-5.36,3.08a11.84,11.84,0,0,0,5.34,9.29C220.19,257.16,222.6,255.78,222.6,252.36Z" style="fill: #d4ecff"/>
          <path d="M220.69,251.25a7.82,7.82,0,0,0-3.61-5.64c-1.9-1.1-3.36-.36-3.26,1.66a7.82,7.82,0,0,0,3.61,5.64C219.33,254,220.79,253.27,220.69,251.25Z" style="fill: #396caa"/>
        </g>
        <g>
          <path d="M276.51,221.39a11.84,11.84,0,0,0-5.34-9.29,4.18,4.18,0,0,0-3.18-.63c1-1,2.56-1.1,4.35-.06a11.84,11.84,0,0,1,5.34,9.29c0,2-.87,3.35-2.19,3.71A4.23,4.23,0,0,0,276.51,221.39Z" style="fill: #fff"/>
          <path d="M276.51,221.39a11.84,11.84,0,0,0-5.34-9.29,3.76,3.76,0,0,0-3.79-.38l-2.91,1.67,1.35,2.36a12.09,12.09,0,0,0,4.84,8.42l1.35,2.36,2.91-1.67h0A3.76,3.76,0,0,0,276.51,221.39Z" style="fill: #5793ce"/>
          <path d="M273.6,223.06a11.84,11.84,0,0,0-5.34-9.29c-3-1.71-5.36-.33-5.36,3.08a11.84,11.84,0,0,0,5.34,9.29C271.19,227.85,273.59,226.48,273.6,223.06Z" style="fill: #d4ecff"/>
        </g>
        <g>
          <path d="M218.27,252.74,215,247.08l-10.87,6.25a3.27,3.27,0,0,0-1.21,4.46h0A3.27,3.27,0,0,0,207.4,259Z" style="fill: #236d2e"/>
          <path d="M219,251.25a5.11,5.11,0,0,0-2.3-4c-1.27-.74-2.31-.14-2.31,1.33a5.11,5.11,0,0,0,2.3,4C217.91,253.32,218.95,252.72,219,251.25Z" style="fill: #236d2e"/>
        </g>
        <g>
          <path d="M231.16,231.48l-1.61-.94a3.45,3.45,0,0,0-3.47.34l-5.59,3.21a4.23,4.23,0,0,0-1.92,3.31v2.78a2.28,2.28,0,0,1-.57,1.39l.2,1.29-1.38-.81h0a.71.71,0,0,1-.32-.68v-2.78a8.82,8.82,0,0,1,4-6.89l5.59-3.21c1.87-1.07,3.62-1.24,4.94-.48l1.61.94a3.45,3.45,0,0,0,3.47-.34l22.52-12.94a.72.72,0,0,1,.74-.06h0l1.37.81-1.19.44a2.29,2.29,0,0,1-.93,1.21L236.1,231C234.24,232.07,232.48,232.24,231.16,231.48Z" style="fill: #5793ce"/>
          <path d="M230.95,231.36a3.45,3.45,0,0,0-3.47.34l-5.59,3.21a4.23,4.23,0,0,0-1.92,3.31V241a2.29,2.29,0,0,1-1,1.79c-.57.33-1,.06-1-.6v-2.78a8.82,8.82,0,0,1,4-6.89l5.59-3.21c1.87-1.07,3.62-1.24,4.94-.48l1.61.94a3.45,3.45,0,0,0,3.47-.34L260,216.48c.57-.33,1-.06,1,.6a2.29,2.29,0,0,1-1,1.79L237.5,231.82c-1.87,1.07-3.62,1.24-4.94.48Z" style="fill: #5793ce"/>
          <path d="M219.9,238.67v2.78s0,0,0,.06A1.79,1.79,0,0,0,220,241v-2.78c0-.08,0-.16,0-.24A3.14,3.14,0,0,0,219.9,238.67Z" style="fill: #fff"/>
        </g>
      </g>
      <path d="M209.35,266.13l10.3-5.95c1.24-.72,1.09-2-.35-2.8h0a5.39,5.39,0,0,0-4.85-.2l-10.3,5.95c-1.24.72-1.09,2,.35,2.8h0A5.39,5.39,0,0,0,209.35,266.13Z" style="fill: #efefef"/>
    </g>
    <g>
      <polygon points="13.76 156.91 0 148.97 13.76 141.02 27.53 148.97 13.76 156.91" style="fill: #efefef"/>
      <polygon points="27.53 139.95 13.76 147.9 13.76 132 27.53 124.06 27.53 139.95" style="fill: #18511f"/>
      <polygon points="13.76 132 0 124.06 13.76 116.11 27.53 124.06 13.76 132" style="fill: #236d2e"/>
      <polygon points="13.76 147.9 0 139.95 0 124.06 13.76 132 13.76 147.9" style="fill: #236d2e"/>
    </g>
    <g>
      <polygon points="328.84 159.83 313.51 150.98 328.84 142.13 344.17 150.98 328.84 159.83" style="fill: #efefef"/>
      <polygon points="344.17 140.94 328.84 149.79 328.84 132.09 344.17 123.24 344.17 140.94" style="fill: #173d7a"/>
      <polygon points="328.84 132.09 313.51 123.24 328.84 114.39 344.17 123.24 328.84 132.09" style="fill: #d4ecff"/>
      <polygon points="328.84 149.79 313.51 140.94 313.51 123.24 328.84 132.09 328.84 149.79" style="fill: #5793ce"/>
    </g>
    <g>
      <polygon points="109.04 265.17 93.71 256.32 109.04 247.47 124.37 256.32 109.04 265.17" style="fill: #efefef"/>
      <polygon points="124.37 246.28 109.04 255.13 109.04 237.43 124.37 228.58 124.37 246.28" style="fill: #173d7a"/>
      <polygon points="109.04 237.43 93.71 228.58 109.04 219.72 124.37 228.58 109.04 237.43" style="fill: #d4ecff"/>
      <polygon points="109.04 255.13 93.71 246.28 93.71 228.58 109.04 237.43 109.04 255.13" style="fill: #5793ce"/>
    </g>
    <g>
      <g>
        <path d="M179.83,138.42c-9.1,5.25-23.85,5.25-32.94,0s-9.1-13.77,0-19,23.85-5.25,32.94,0S188.93,133.17,179.83,138.42Z" style="fill: #5793ce"/>
        <path d="M186.66,122v-4.28h-1.23a14.88,14.88,0,0,0-5.59-5.23c-9.1-5.25-23.85-5.25-32.94,0a14.87,14.87,0,0,0-5.59,5.23h-1.23V122h0c0,3.45,2.26,6.91,6.82,9.55,9.1,5.25,23.85,5.25,32.94,0C184.38,128.88,186.66,125.44,186.66,122Z" style="fill: #18511f"/>
        <path d="M179.83,127.22c-9.1,5.25-23.85,5.25-32.94,0s-9.1-13.77,0-19,23.85-5.25,32.94,0S188.93,122,179.83,127.22Z" style="fill: #236d2e"/>
        <path d="M179.83,127.22c-9.1,5.25-23.85,5.25-32.94,0-4.36-2.52-6.61-5.78-6.79-9.08-.2,3.58,2.05,7.2,6.79,9.94,9.1,5.25,23.85,5.25,32.94,0,4.74-2.73,7-6.35,6.79-9.94C186.44,121.44,184.19,124.7,179.83,127.22Z" style="fill: #fff"/>
      </g>
      <path d="M152.13,122.16a1,1,0,0,1-.61-.86l0-8.76c0-.67.94-1.21,2.1-1.21s2.09.54,2.09,1.21l0,7.27,21.09-2.58c1.13-.14,2.25.28,2.49.93s-.48,1.3-1.62,1.44l-23.62,2.89a3.32,3.32,0,0,1-1.76-.24Z" style="fill: #fff"/>
    </g>
    <g>
      <path d="M265.33,96.85a1.63,1.63,0,0,1-2.35.72,2,2,0,0,1-.84-2.57,1.63,1.63,0,0,1,2.35-.72A2,2,0,0,1,265.33,96.85Z" style="fill: #236d2e"/>
      <path d="M271,100.1a1.63,1.63,0,0,1-2.35.72,2,2,0,0,1-.84-2.57,1.63,1.63,0,0,1,2.35-.72A2,2,0,0,1,271,100.1Z" style="fill: #fff"/>
      <path d="M276.59,103.35a1.63,1.63,0,0,1-2.35.72,2,2,0,0,1-.84-2.57,1.63,1.63,0,0,1,2.35-.72A2,2,0,0,1,276.59,103.35Z" style="fill: #d4ecff"/>
      <path d="M282.22,106.6a1.63,1.63,0,0,1-2.35.72,2,2,0,0,1-.84-2.57,1.63,1.63,0,0,1,2.35-.72A2,2,0,0,1,282.22,106.6Z" style="fill: #236d2e"/>
    </g>
    <path d="M107.56,30.36l-.78-.44h0L90.59,39.33a69.43,69.43,0,0,0-15,12.1l27.71,16,34.64-20Z" style="fill: #173d7a"/>
    <g>
      <g>
        <path d="M137.17,30.84l-5-2.9,18.53-10.7a1,1,0,0,0,0-1.83L131.74,4.48a3.51,3.51,0,0,0-3.17,0L110,15.18l-5-2.9,18.53-10.7a14.64,14.64,0,0,1,13.23,0L155.7,12.51c3.65,2.11,3.65,5.53,0,7.64Z" style="fill: #236d2e"/>
        <g>
          <path d="M145.28,32.12c0-2.69-1.63-5.81-3.65-7L108.06,5.77a2.34,2.34,0,0,0-2.36-.2h0L65.61,28.86l38.76,29.21,39.49-22.92a1.83,1.83,0,0,0,.35-.2h0A3.43,3.43,0,0,0,145.28,32.12Z" style="fill: #d4ecff"/>
          <path d="M104.37,58.07l39.49-22.92a1.83,1.83,0,0,0,.35-.2h0a3.43,3.43,0,0,0,1.07-2.82,9,9,0,0,0-1-3.88l-45,26Z" style="fill: #5793ce"/>
          <path d="M101.85,58,68.27,38.58c-2-1.16-3.65-4.28-3.65-7h0c0-2.69,1.63-3.92,3.65-2.76l33.57,19.38c2,1.16,3.65,4.28,3.65,7h0C105.5,57.89,103.86,59.13,101.85,58Z" style="fill: #5793ce"/>
          <path d="M102.25,48,68.68,28.67a2.32,2.32,0,0,0-2.41-.17,2.54,2.54,0,0,1,2,.35l33.57,19.38c2,1.16,3.65,4.28,3.65,7h0a3.25,3.25,0,0,1-1.24,2.93c1-.3,1.64-1.42,1.64-3.11h0C105.9,52.33,104.27,49.21,102.25,48Z" style="fill: #fff"/>
        </g>
        <path d="M96.82,51.43l-4-2.33a1.74,1.74,0,0,1-.73-1.39h0c0-.54.33-.78.73-.55l4,2.33a1.74,1.74,0,0,1,.73,1.39h0C97.55,51.41,97.22,51.66,96.82,51.43Z" style="fill: #fff"/>
      </g>
      <g>
        <path d="M101.37,23.87a1.35,1.35,0,0,0,0-2.56,4.9,4.9,0,0,0-4.44,0,1.35,1.35,0,0,0,0,2.56A4.9,4.9,0,0,0,101.37,23.87Z" style="fill: #5793ce"/>
        <path d="M108.13,27.67a1.35,1.35,0,0,0,0-2.56,4.9,4.9,0,0,0-4.44,0,1.35,1.35,0,0,0,0,2.56A4.9,4.9,0,0,0,108.13,27.67Z" style="fill: #fff"/>
        <path d="M114.89,31.48a1.35,1.35,0,0,0,0-2.56,4.9,4.9,0,0,0-4.44,0,1.35,1.35,0,0,0,0,2.56A4.9,4.9,0,0,0,114.89,31.48Z" style="fill: #fff"/>
      </g>
    </g>
    <g>
      <path d="M34.81,235,4.1,217.25c-1.88-1.09-1.65-3,.53-4.24l29.64-17.12a8.17,8.17,0,0,1,7.35-.3l30.7,17.73c1.88,1.09,1.65,3-.53,4.24L42.16,234.67A8.17,8.17,0,0,1,34.81,235Z" style="fill: #efefef"/>
      <path d="M73.59,204.74h0V194.15H49.84l-8.21-4.74a8.17,8.17,0,0,0-7.35.3l-7.66,4.42H2.84V205a2.13,2.13,0,0,0,1.26,2l30.7,17.73a8.17,8.17,0,0,0,7.35-.3L71.8,207.28C73.06,206.56,73.66,205.62,73.59,204.74Z" style="fill: #396caa"/>
      <path d="M38.22,188.67a8.48,8.48,0,0,0-3.94,1l-7.66,4.42H2.84V205a2.13,2.13,0,0,0,1.26,2l30.7,17.73a6.65,6.65,0,0,0,3.41.73Z" style="fill: #396caa"/>
      <path d="M5.53,194.11H2.84V205a2.13,2.13,0,0,0,1.26,2l1.43.82Z" style="fill: #5793ce"/>
      <path d="M35.28,224.93a8.38,8.38,0,0,0,5.88-.07V212.5H35.28Z" style="fill: #5793ce"/>
      <path d="M34.81,213.85,4.1,196.12c-1.88-1.09-1.65-3,.53-4.24l29.64-17.12a8.17,8.17,0,0,1,7.35-.3l30.7,17.73c1.88,1.09,1.65,3-.53,4.24L42.16,213.54A8.17,8.17,0,0,1,34.81,213.85Z" style="fill: #d4ecff"/>
      <path d="M71.8,194.34,42.16,211.46a8.17,8.17,0,0,1-7.35.3L4.1,194a2.84,2.84,0,0,1-.94-.83c-.65,1-.35,2.17.94,2.92l30.7,17.73a8.17,8.17,0,0,0,7.35-.3L71.8,196.43c1.69-1,2.2-2.34,1.47-3.41A4.11,4.11,0,0,1,71.8,194.34Z" style="fill: #fff"/>
      <g>
        <path d="M62.3,207.54a2.74,2.74,0,0,1-1.24,2.15c-.68.4-1.24.07-1.24-.72a2.74,2.74,0,0,1,1.24-2.15C61.74,206.43,62.3,206.75,62.3,207.54Z" style="fill: #d4ecff"/>
        <path d="M66.29,205.24A2.74,2.74,0,0,1,65,207.38c-.68.4-1.24.07-1.24-.72A2.74,2.74,0,0,1,65,204.52C65.73,204.12,66.29,204.45,66.29,205.24Z" style="fill: #d4ecff"/>
        <path d="M70.28,202.93A2.74,2.74,0,0,1,69,205.08c-.68.4-1.24.07-1.24-.72A2.74,2.74,0,0,1,69,202.22C69.72,201.82,70.28,202.14,70.28,202.93Z" style="fill: #d4ecff"/>
      </g>
      <g>
        <path d="M36.62,202.86l-14.37-8.29c-.88-.51-.77-1.4.25-2l13.87-8a3.82,3.82,0,0,1,3.44-.14l14.37,8.29c.88.51.77,1.4-.25,2l-13.87,8A3.82,3.82,0,0,1,36.62,202.86Z" style="fill: #5793ce"/>
        <path d="M38,195.91l-2-1.15c-.12-.07-.11-.19,0-.27L38,193.38a.53.53,0,0,1,.48,0l2,1.15c.12.07.11.19,0,.27l-1.92,1.11A.53.53,0,0,1,38,195.91Z" style="fill: #d4ecff"/>
        <path d="M22.25,194.56l0,0,.21-.14,13.87-8a3.82,3.82,0,0,1,3.44-.14l14.33,8.27c.81-.58.86-1.37,0-1.84l-14.37-8.29a3.82,3.82,0,0,0-3.44.14l-13.87,8C21.48,193.16,21.37,194.05,22.25,194.56Z" style="fill: #396caa"/>
      </g>
    </g>
  </g>
</svg>
